<?xml version="1.0" encoding="UTF-8"?>
<svg width="1024" height="1024" viewBox="0 0 1024 1024" xmlns="http://www.w3.org/2000/svg">
  <defs>
    <linearGradient id="grad1" x1="0%" y1="0%" x2="100%" y2="100%">
      <stop offset="0%" style="stop-color:#4CAF50;stop-opacity:1" />
      <stop offset="100%" style="stop-color:#2196F3;stop-opacity:1" />
    </linearGradient>
    <filter id="shadow" x="-20%" y="-20%" width="140%" height="140%">
      <feDropShadow dx="0" dy="4" stdDeviation="8" flood-color="#000000" flood-opacity="0.3"/>
    </filter>
  </defs>
  
  <!-- Background -->
  <rect width="1024" height="1024" rx="200" fill="url(#grad1)"/>
  
  <!-- Timer circle -->
  <circle cx="512" cy="400" r="200" fill="none" stroke="#fff" stroke-width="20" stroke-linecap="round" filter="url(#shadow)"/>
  
  <!-- Timer hands -->
  <line x1="512" y1="400" x2="512" y2="250" stroke="#fff" stroke-width="16" stroke-linecap="round"/>
  <line x1="512" y1="400" x2="650" y2="400" stroke="#fff" stroke-width="16" stroke-linecap="round"/>
  
  <!-- Plant -->
  <path d="M400 700 Q512 600 624 700" fill="none" stroke="#fff" stroke-width="20" stroke-linecap="round"/>
  <path d="M420 700 Q512 650 604 700" fill="none" stroke="#fff" stroke-width="16" stroke-linecap="round"/>
  <path d="M440 700 Q512 680 584 700" fill="none" stroke="#fff" stroke-width="12" stroke-linecap="round"/>
  
  <!-- Focus rays -->
  <path d="M200 200 Q300 150 400 200" fill="none" stroke="#fff" stroke-width="8" stroke-linecap="round" opacity="0.7"/>
  <path d="M624 200 Q724 150 824 200" fill="none" stroke="#fff" stroke-width="8" stroke-linecap="round" opacity="0.7"/>
  <path d="M200 824 Q300 874 400 824" fill="none" stroke="#fff" stroke-width="8" stroke-linecap="round" opacity="0.7"/>
  <path d="M624 824 Q724 874 824 824" fill="none" stroke="#fff" stroke-width="8" stroke-linecap="round" opacity="0.7"/>
</svg>
